<mxfile host="Electron" modified="2023-06-28T16:20:03.037Z" agent="Mozilla/5.0 (Windows NT 10.0; Win64; x64) AppleWebKit/537.36 (KHTML, like Gecko) draw.io/21.4.0 Chrome/112.0.5615.204 Electron/24.5.1 Safari/537.36" etag="w_4s0AcYWvOe7GAsT74-" version="21.4.0" type="device">
  <diagram name="Page-1" id="4I2zJMP6fPbmH2adfHKz">
    <mxGraphModel dx="572" dy="330" grid="1" gridSize="10" guides="1" tooltips="1" connect="1" arrows="1" fold="1" page="1" pageScale="1" pageWidth="827" pageHeight="1169" math="0" shadow="0">
      <root>
        <mxCell id="0" />
        <mxCell id="1" parent="0" />
        <mxCell id="surEGs3InDAg60IctFDv-1" style="edgeStyle=orthogonalEdgeStyle;rounded=0;orthogonalLoop=1;jettySize=auto;html=1;exitX=1;exitY=0.5;exitDx=0;exitDy=0;" parent="1" source="tfoxWXDdU5jyKTtbno_l-1" edge="1">
          <mxGeometry relative="1" as="geometry">
            <mxPoint x="480" y="119.96089385474863" as="targetPoint" />
          </mxGeometry>
        </mxCell>
        <mxCell id="tfoxWXDdU5jyKTtbno_l-1" value="" style="rounded=0;whiteSpace=wrap;html=1;movable=1;resizable=1;rotatable=1;deletable=1;editable=1;locked=0;connectable=1;" parent="1" vertex="1">
          <mxGeometry x="320" y="80" width="120" height="80" as="geometry" />
        </mxCell>
        <mxCell id="tfoxWXDdU5jyKTtbno_l-7" value="Empty" style="text;html=1;strokeColor=none;fillColor=none;align=center;verticalAlign=middle;whiteSpace=wrap;rounded=0;fontFamily=UGent Panno Text;fontSize=22;" parent="1" vertex="1">
          <mxGeometry x="325" y="80" width="110" height="30" as="geometry" />
        </mxCell>
        <mxCell id="uWq-LNssUS6APJ5jSLnP-3" value="&lt;font color=&quot;#e0a458&quot; face=&quot;tabler-icons&quot;&gt;î©‘&lt;/font&gt;&amp;nbsp;output" style="text;html=1;strokeColor=none;fillColor=none;align=center;verticalAlign=middle;whiteSpace=wrap;rounded=0;fontFamily=UGent Panno Text;fontSize=16;" parent="1" vertex="1">
          <mxGeometry x="480" y="110" width="60" height="20" as="geometry" />
        </mxCell>
        <mxCell id="nwSjoOq7QrWv4djWdRic-1" value="" style="shape=image;verticalLabelPosition=bottom;labelBackgroundColor=default;verticalAlign=top;aspect=fixed;imageAspect=0;image=data:image/svg+xml,PHN2ZyB4bWxucz0iaHR0cDovL3d3dy53My5vcmcvMjAwMC9zdmciIHZpZXdCb3g9IjAgMCA1MTIgNTEyIj48cGF0aCBkPSJNNTA3LjMxIDI3LjMxTDQ4NC42OSA0LjY5Yy02LjI1LTYuMjUtMTYuMzgtNi4yNS0yMi42MyAwbC03Mi4wOSA3Mi4wOUMzNTIuNTcgNDguNzggMzA2LjMxIDMyIDI1NiAzMiAxMzIuMjkgMzIgMzIgMTMyLjI5IDMyIDI1NmMwIDUwLjMgMTYuNzggOTYuNTcgNDQuNzggMTMzLjk2bC03Mi4wOSA3Mi4xYy02LjI1IDYuMjUtNi4yNSAxNi4zOCAwIDIyLjYzbDIyLjYzIDIyLjYzYzYuMjUgNi4yNSAxNi4zOCA2LjI1IDIyLjYzIDBsNzIuMDktNzIuMDlDMTU5LjQzIDQ2My4yMiAyMDUuNyA0ODAgMjU2IDQ4MGMxMjMuNzEgMCAyMjQtMTAwLjI5IDIyNC0yMjQgMC01MC4zLTE2Ljc4LTk2LjU3LTQ0Ljc4LTEzMy45Nmw3Mi4wOS03Mi4wOWM2LjI1LTYuMjYgNi4yNS0xNi4zOSAwLTIyLjY0ek0xMTIgMjU2YzAtNzkuNCA2NC42LTE0NCAxNDQtMTQ0IDI4LjExIDAgNTQuMTYgOC40MSA3Ni4zNSAyMi4zOUwxMzQuMzkgMzMyLjM1QzEyMC40MSAzMTAuMTYgMTEyIDI4NC4xMSAxMTIgMjU2em0yODggMGMwIDc5LjQtNjQuNiAxNDQtMTQ0IDE0NC0yOC4xMSAwLTU0LjE2LTguNDEtNzYuMzUtMjIuMzlMMzc3LjYgMTc5LjY1QzM5MS41OSAyMDEuODQgNDAwIDIyNy44OSA0MDAgMjU2eiIvPjwvc3ZnPg==;" vertex="1" parent="1">
          <mxGeometry x="360" y="110" width="40" height="40" as="geometry" />
        </mxCell>
      </root>
    </mxGraphModel>
  </diagram>
</mxfile>
